<?xml version="1.0" encoding="UTF-8"?>
<svg width="70px" height="70px" viewBox="0 0 70 70" version="1.1" xmlns="http://www.w3.org/2000/svg" xmlns:xlink="http://www.w3.org/1999/xlink">
    <!-- Generator: Sketch 52.2 (67145) - http://www.bohemiancoding.com/sketch -->
    <title>Group 5</title>
    <desc>Created with Sketch.</desc>
    <g id="Page-1" stroke="none" stroke-width="1" fill="none" fill-rule="evenodd">
        <g id="Desktop-HD-Copy-5" transform="translate(-348.000000, -2587.000000)" fill-rule="nonzero">
            <g id="Group-5" transform="translate(348.000000, 2587.000000)">
                <circle id="Oval" fill="#DDE5FF" cx="35" cy="35" r="35"></circle>
                <g id="Group-4" transform="translate(16.000000, 22.000000)" fill="#4D75FF">
                    <path d="M12.2273122,20.9222723 C17.6671611,20.9222723 21.4222723,17.3405503 21.4222723,12.9222723 C21.4222723,8.50399432 17.7532637,4.92227232 13.2273122,4.92227232 C9.36440494,4.92227232 5.63812286,7.43751645 5.63812286,12.9222723 C5.63812286,14.1481113 -1.29447755,13.9135292 -1.29447755,7.98813002 C-1.29447755,5.79015262 -4.42227232,5.570118 -4.42227232,7.98813002 C-4.42227232,12.2602346 -1.40458096,20.9222723 12.2273122,20.9222723 Z" id="Oval" transform="translate(8.500000, 12.922272) scale(-1, 1) rotate(-90.000000) translate(-8.500000, -12.922272) "></path>
                    <path d="M32.2273122,20.9222723 C37.6671611,20.9222723 41.4222723,17.3405503 41.4222723,12.9222723 C41.4222723,8.50399432 37.7532637,4.92227232 33.2273122,4.92227232 C29.3644049,4.92227232 25.6381229,7.43751645 25.6381229,12.9222723 C25.6381229,14.1481113 18.7055224,13.9135292 18.7055224,7.98813002 C18.7055224,5.79015262 15.5777277,5.570118 15.5777277,7.98813002 C15.5777277,12.2602346 18.595419,20.9222723 32.2273122,20.9222723 Z" id="Oval-Copy" transform="translate(28.500000, 12.922272) scale(-1, 1) rotate(-90.000000) translate(-28.500000, -12.922272) "></path>
                </g>
            </g>
        </g>
    </g>
</svg>