<?xml version="1.0" encoding="UTF-8"?>
<svg width="264px" height="449px" viewBox="0 0 264 449" version="1.1" xmlns="http://www.w3.org/2000/svg" xmlns:xlink="http://www.w3.org/1999/xlink">
    <!-- Generator: Sketch 52.2 (67145) - http://www.bohemiancoding.com/sketch -->
    <title>Group 12</title>
    <desc>Created with Sketch.</desc>
    <defs>
        <path d="M17.3287397,0.474817423 C2.29336177,5.4505508 -3.57744672,26.6327963 2.29336177,47.6398039 C8.16417026,68.6468115 50.0846458,96.4074591 50.0846458,131.359565 C50.0846458,184.001591 4.31389016,212.181861 6.94141685,213.91796 C9.56894354,215.654059 52.6856388,191.161737 69.9612804,163.526956 C81.4783748,145.103768 88.2995612,128.910276 90.4248394,114.946479 C117.465961,122.271097 135.625058,138.464589 144.902128,163.526956 C158.817734,201.120506 158.368796,224.815745 162.764034,224.815745 C167.159271,224.815745 169.402556,167.057646 155.386158,135.267317 C141.369759,103.476988 120.184705,87.4181281 84.0350659,70.3549199 C47.8854272,53.2917117 32.3641175,-4.50091595 17.3287397,0.474817423 Z" id="path-1"></path>
        <path d="M35.0339092,52.4184391 C37.202904,60.2306965 41.6305755,63.4872638 48.3169239,62.1881408 C58.3464464,60.2394563 35.5448884,0.483501628 19.712081,0.483501628 C3.87927352,0.483501628 -2.09325657,11.5255637 0.893008479,29.2847169 C3.87927352,47.0438701 9.41075535,57.4979027 23.0935013,56.4488057 C27.4793448,56.11253 31.4594808,54.7690745 35.0339092,52.4184391 Z" id="path-3"></path>
        <polygon id="path-5" points="61.6409736 0.0315309058 90.8837874 60.1971361 31.8475042 92.5894808 0.339214406 31.0672258"></polygon>
        <polygon id="path-7" points="63.8657585 2.87229133 0.101679711 0.218285481 55.0199212 128.716279 113.644701 115.662893"></polygon>
        <path d="M44.6544529,269.175099 C81.7890494,300.517158 130.623533,300.150378 132.842155,298.318511 C135.060777,296.486643 138.598465,291.348517 136.19637,291.348517 C133.794275,291.348517 104.091198,289.358669 80.9275388,276.547827 C65.4850996,268.007266 60.9968568,263.736986 67.4628104,263.736986 C35.4867265,253.207875 27.8839407,255.020579 44.6544529,269.175099 Z" id="path-9"></path>
        <filter x="-8.4%" y="-10.7%" width="116.7%" height="142.9%" filterUnits="objectBoundingBox" id="filter-10">
            <feOffset dx="0" dy="5" in="SourceAlpha" result="shadowOffsetOuter1"></feOffset>
            <feGaussianBlur stdDeviation="2" in="shadowOffsetOuter1" result="shadowBlurOuter1"></feGaussianBlur>
            <feColorMatrix values="0 0 0 0 0   0 0 0 0 0   0 0 0 0 0  0 0 0 0.05 0" type="matrix" in="shadowBlurOuter1"></feColorMatrix>
        </filter>
    </defs>
    <g id="Page-1" stroke="none" stroke-width="1" fill="none" fill-rule="evenodd">
        <g id="Desktop-HD-Copy-5" transform="translate(-269.000000, -666.000000)">
            <g id="Group-12" transform="translate(269.000000, 667.000000)">
                <g id="Group-11" transform="translate(0.000000, 149.000000)">
                    <g id="Path-32-+-Path-43-+-Path-44-Mask" transform="translate(30.738916, 73.912135)">
                        <mask id="mask-2" fill="white">
                            <use xlink:href="#path-1"></use>
                        </mask>
                        <use id="Mask" fill="#8ABCFF" fill-rule="nonzero" xlink:href="#path-1"></use>
                        <path d="M91.3671174,115.354263 C98.5826839,111.994115 107.025699,107.893905 109.970365,110.380691 C112.91503,112.867477 111.727347,118.654912 114.648879,120.056124 C117.570412,121.457335 126.937596,123.957734 130.473,128.051338 C134.008405,132.144941 130.428427,132.899576 133.417666,137.04862 C136.406905,141.197664 143.456273,147.950113 143.456273,150.126594 C143.456273,152.303075 148.973783,160.204538 148.973783,164.569851 C148.973783,168.935164 156.687498,174.313773 155.069054,184.381051 C153.990091,191.092569 152.918261,195.85085 151.853563,198.655893 C106.718888,145.361572 86.5567398,117.594362 91.3671174,115.354263 Z" id="Path-32" fill="#4D75FF" fill-rule="nonzero" mask="url(#mask-2)"></path>
                        <path d="M20.1229595,194.355239 C41.8889076,203.310524 6.18363417,221.9854 2.29336177,218.313948 C-1.59691063,214.642496 -1.64298869,185.399953 20.1229595,194.355239 Z" id="Path-43" fill="#FFDB9A" fill-rule="nonzero" mask="url(#mask-2)"></path>
                        <path d="M159.790324,196.110707 C182.379873,191.507401 175.537439,226.237762 163.321655,227.912974 C151.105871,229.588185 137.200776,200.714014 159.790324,196.110707 Z" id="Path-44" fill="#FFDB9A" fill-rule="nonzero" mask="url(#mask-2)"></path>
                        <path d="M9.56894354,-4.97379915e-14 C82.4219722,-42.2505351 213.414242,66.6150756 128.391214,78.4997843 C71.7091955,86.4229234 35.6197773,109.207877 20.1229595,146.854645 C-35.4817369,77.1185716 -38.9997422,28.1670234 9.56894354,-4.97379915e-14 Z" id="Path-31" fill="#FF8E6D" fill-rule="nonzero" mask="url(#mask-2)"></path>
                    </g>
                    <path d="M51.822425,265.419535 C49.4622868,265.419535 46.6730251,271.1949 48.0676559,271.881464 C49.4622868,272.568027 60.7543726,279.410367 62.2767053,279.410367 C63.799038,279.410367 68.2005652,273.254591 67.4126912,272.568027 C66.6248173,271.881464 54.1825633,265.419535 51.822425,265.419535 Z" id="Path-33" fill="#FFC245" fill-rule="nonzero"></path>
                    <path d="M38.7967819,285.46259 C38.1803154,285.46259 35.9332115,287.440867 36.5064172,288.200727 C36.8885543,288.707301 40.4558502,292.216351 47.2083048,298.727879 C48.3541063,297.368009 48.6405567,296.077968 48.0676559,294.857757 C47.2083048,293.027441 39.4132484,285.46259 38.7967819,285.46259 Z" id="Path-34" fill="#4D75FF" fill-rule="nonzero"></path>
                    <path d="M190.868261,295.909858 C190.195373,296.617015 190.580986,298.727879 191.524852,298.727879 C192.154096,298.727879 197.545212,298.727879 207.698198,298.727879 C207.592433,296.378107 206.135246,295.022571 203.326635,294.661271 C199.113719,294.119322 191.541149,295.202701 190.868261,295.909858 Z" id="Path-35" fill="#4D75FF" fill-rule="nonzero"></path>
                    <path d="M197.81028,264.678379 C199.139184,265.419535 200.862663,272.630591 199.336472,273.194294 C197.81028,273.757997 185.21622,278.132435 183.511725,277.051696 C181.807229,275.970957 181.344533,270.996519 182.428129,270.156149 C183.511725,269.31578 196.481377,263.937222 197.81028,264.678379 Z" id="Path-36" fill="#FFC245" fill-rule="nonzero"></path>
                    <g id="Path-40" transform="translate(13.320197, 22.428510)">
                        <mask id="mask-4" fill="white">
                            <use xlink:href="#path-3"></use>
                        </mask>
                        <use id="Mask" fill="#FFDB9A" fill-rule="nonzero" xlink:href="#path-3"></use>
                        <path d="M23.0935013,2.75248455 C25.8807855,29.4748839 43.7872524,72.3729574 54.1860926,77.6424891 C61.1186527,81.1555102 55.4292978,55.4358477 37.1180278,0.483501628 C25.910154,-15.818776 21.2353118,-15.0624484 23.0935013,2.75248455 Z" fill-opacity="0.1" fill="#000000" fill-rule="nonzero" mask="url(#mask-4)"></path>
                    </g>
                    <path d="M50.2406913,42.3083253 C54.49519,40.4927892 35.5470481,-2.52780695 34.289663,0.190775341 C33.4514064,2.00316353 33.4514064,4.15335791 34.289663,6.64135846 C17.463567,-0.704743043 7.75230138,-1.70596572 5.15586612,3.63769042 C2.55943086,8.98134657 4.29716967,14.0104702 10.3690825,18.7250613 C2.92113933,19.5847924 -0.476764771,22.625835 0.175370223,27.848189 C1.15357271,35.6817201 20.1171207,33.1318105 25.2351978,31.4753841 C30.3532748,29.8189577 40.3078598,25.3493427 42.3974495,35.6817201 C43.2599804,39.9466699 45.9861927,44.1238614 50.2406913,42.3083253 Z" id="Path-41" fill="#4D75FF" fill-rule="nonzero"></path>
                    <path d="M21.3454879,52.478037 C21.3089367,61.5836809 23.2475972,64.8203821 27.1614695,62.1881408" id="Path-42" stroke="#4D75FF" stroke-width="2" fill-rule="nonzero"></path>
                </g>
                <g id="Group-7" transform="translate(4.000000, 0.000000)" fill-rule="nonzero">
                    <path d="M36.6353413,17.4594595 C25.3280452,16.7747748 20.5873677,14.3783784 22.413309,10.2702703 C24.2392503,6.16216216 28.9799278,8.55855856 36.6353413,17.4594595 Z" id="Path-29" stroke="#C0C0C0" stroke-width="2"></path>
                    <path d="M36.6353413,18.2583134 C28.1249158,6.66741363 27.0982195,0.714881045 33.5552526,0.400715602 C40.0122856,0.0865501583 41.0389818,6.03908275 36.6353413,18.2583134 Z" id="Path-30" stroke="#C0C0C0" stroke-width="2"></path>
                    <polygon id="Path-27" fill="#F5F5F5" points="7.71022634 24.3327152 20.1598912 50.3732781 68.8793396 33.8918919 59.0366355 10.2702703"></polygon>
                    <polygon id="Path-26" fill="#C0C0C0" points="66.387881 33.8918919 19.2485423 48.7727988 12.1086231 75.4872836 66.387881 54.6895878"></polygon>
                    <polygon id="Path-28" fill="#E8E8E8" points="0.483420431 51.1046197 12.1086231 75.4872836 19.2485423 48.6379116 7.71022634 24.3871607"></polygon>
                </g>
                <g id="Group-8" transform="translate(23.000000, 24.000000)">
                    <polygon id="Path-23" fill="#C0C0C0" fill-rule="nonzero" points="64.8410609 73.9723889 90.4964156 60.1971361 92.5015942 75.0320416"></polygon>
                    <g id="Path-25">
                        <mask id="mask-6" fill="white">
                            <use xlink:href="#path-5"></use>
                        </mask>
                        <use id="Mask" fill="#F5F5F5" fill-rule="nonzero" xlink:href="#path-5"></use>
                        <polygon fill="#E8E8E8" fill-rule="nonzero" mask="url(#mask-6)" points="25.6003653 17.1797361 39.8955464 45.604765 49.2683044 41.0116421 35.5470075 11.9874509"></polygon>
                    </g>
                </g>
                <g id="Group-9" transform="translate(28.000000, 97.000000)" fill-rule="nonzero">
                    <polygon id="Path-22" fill="#F5F5F5" points="104.644213 11.1661985 119.743226 45.8331877 69.1202605 72.6142412 47.2024189 16.0574895"></polygon>
                    <polygon id="Path-20" fill="#E8E8E8" points="23.9218674 94 0.00880644555 36.0760567 43.2306036 3.03227109 69.1202605 72.6142412"></polygon>
                    <path d="M43.2048064,3.03227109 L105.639794,0.374063256 C108.822088,8.3643972 109.617661,12.7740058 108.026514,13.602889 C106.435368,14.4317723 86.235513,16.0804267 47.4269502,18.5488523 L43.2048064,3.03227109 Z" id="Path-21" fill="#E8E8E8"></path>
                </g>
                <g id="Group-10" transform="translate(44.000000, 136.000000)">
                    <polygon id="Path-16" fill="#E8E8E8" fill-rule="nonzero" points="-9.09494702e-13 58.036776 106.156426 0.218285481 161.276796 128.816246 52.3241452 179.975255"></polygon>
                    <g id="Path-18" transform="translate(106.256875, 0.000000)">
                        <mask id="mask-8" fill="white">
                            <use xlink:href="#path-7"></use>
                        </mask>
                        <use id="Mask" fill="#F5F5F5" fill-rule="nonzero" xlink:href="#path-7"></use>
                        <polygon fill="#E8E8E8" fill-rule="nonzero" mask="url(#mask-8)" points="34.6611906 0.218285481 48.1404556 33.704492 59.2734201 33.704492 46.9673054 0.218285481"></polygon>
                    </g>
                    <polygon id="Path-19" fill="#C0C0C0" fill-rule="nonzero" points="123.946766 158.145954 52.4654898 179.975255 161.276796 128.716279 219.901576 115.762263"></polygon>
                </g>
                <g id="Path-37" fill-rule="nonzero">
                    <use fill="black" fill-opacity="1" filter="url(#filter-10)" xlink:href="#path-9"></use>
                    <use fill="#FF8E6D" xlink:href="#path-9"></use>
                </g>
                <path d="M135.216293,292.872946 C140.257819,291.12686 150.089845,281 151.694236,281 C153.298627,281 149.970317,287.037667 150.832276,287.916001 C151.694236,288.794335 164.439155,285.956945 164.983123,286.936473 C165.527092,287.916001 152.793468,297.652374 145.273966,299.353112 C140.260964,300.486937 135.169642,300.130289 130,298.283168 C130.116511,295.840411 131.855275,294.037004 135.216293,292.872946 Z" id="Path-38" fill="#FFDB9A" fill-rule="nonzero"></path>
            </g>
        </g>
    </g>
</svg>