<?xml version="1.0" encoding="UTF-8"?>
<svg width="395px" height="493px" viewBox="0 0 395 493" version="1.1" xmlns="http://www.w3.org/2000/svg" xmlns:xlink="http://www.w3.org/1999/xlink">
    <!-- Generator: Sketch 52.2 (67145) - http://www.bohemiancoding.com/sketch -->
    <title>Group 23</title>
    <desc>Created with Sketch.</desc>
    <defs>
        <path d="M19.4541977,0.604433169 C128.700128,0.604433169 96.3839417,123.911864 76.8854167,123.911864 C69.6178869,123.911864 83.2834203,93.8282185 80.9224473,78.5740149 C79.046238,66.4518612 73.2663823,55.7271487 63.5828801,46.3998774 C77.8334773,205.31533 82.2676561,284.773057 76.8854167,284.773057 C71.5031772,284.773057 61.276885,250.359228 46.20654,181.531571 C47.4856531,252.20333 45.4968503,287.53921 40.2401315,287.53921 C34.9834128,287.53921 22.875793,220.899109 3.91727221,87.6189069 C-3.68575068,29.6092577 1.49322447,0.604433169 19.4541977,0.604433169 Z" id="path-1"></path>
        <path d="M19.688127,59.609195 C16.695104,60.7280048 13.7208293,60.7814954 10.9395592,59.3688726 C-6.09895333,50.7149163 1.59856079,20.9470387 10.6029448,7.70527252 C19.6073289,-5.53649367 35.1828424,3.16585161 43.7214319,12.4098009 C47.1345862,16.1049106 45.3034676,25.7321077 40.7870357,35.4057205 C40.6108886,63.9809623 36.5152104,78.268576 28.5,78.268576 C20.3992894,78.268576 18.9390878,69.1058516 19.6881217,59.609197 Z" id="path-3"></path>
    </defs>
    <g id="Page-1" stroke="none" stroke-width="1" fill="none" fill-rule="evenodd">
        <g id="Desktop-HD-Copy-5" transform="translate(-892.000000, -174.000000)">
            <g id="Group-23" transform="translate(892.000000, 168.000000)">
                <g id="Group-18-Copy" transform="translate(0.000000, 10.000000)">
                    <path d="M183.925526,279.127256 C421.778389,221.852617 492.53451,33.0175389 208.5,8.50876944 C-75.5345102,-16 -53.927338,336.401896 183.925526,279.127256 Z" id="Path-55" fill="#F8F8F8" fill-rule="nonzero"></path>
                    <g id="Group-16-Copy" transform="translate(125.000000, 113.000000)">
                        <path d="M111.006805,203.154533 C108.167575,200.770049 103.5,202.5996 103.5,203.990671 C103.5,205.381742 113.846035,205.539017 111.006805,203.154533 Z" id="Path-51" fill="#FFDB9A" fill-rule="nonzero"></path>
                        <g id="Group-15" transform="translate(0.500000, 0.000000)">
                            <g id="Path-49" transform="translate(35.947917, 82.393220)">
                                <g id="Mask">
                                    <mask id="mask-2" fill="white">
                                        <use xlink:href="#path-1"></use>
                                    </mask>
                                    <use fill="#FF8E6D" fill-rule="nonzero" xlink:href="#path-1"></use>
                                    <path d="M4.4957607,151.935025 C34.037781,140.966146 64.057575,140.966146 94.5551427,151.935025 C106.332609,228.312405 100.224473,268.283216 76.2307366,271.847458 C40.2401315,277.193821 25.7900286,293.03887 7.52869183,275.138671 C-10.732645,257.238471 -39.8172697,168.388343 4.4957607,151.935025 Z" id="Path-49" fill="#8ABCFF" fill-rule="nonzero" mask="url(#mask-2)"></path>
                                    <path d="M38.2704279,266.789831 C54.6807459,266.789831 49.3068654,297.349088 39.8204565,297.349088 C30.3340475,297.349088 21.8601098,266.789831 38.2704279,266.789831 Z" id="Path-48" fill="#FFDB9A" fill-rule="nonzero" mask="url(#mask-2)"></path>
                                    <path d="M74.5342508,266.789831 C90.9445689,266.789831 85.5706884,292.291461 76.0842794,292.291461 C66.5978705,292.291461 58.1239328,266.789831 74.5342508,266.789831 Z" id="Path-48-Copy" fill="#FFDB9A" fill-rule="nonzero" mask="url(#mask-2)"></path>
                                    <path d="" id="Path-62" stroke="#979797" fill-rule="nonzero" mask="url(#mask-2)"></path>
                                </g>
                            </g>
                            <path d="M54.1942999,82.9976535 C2.5,82.9976535 21.7818846,51.4202198 51.9137909,36.7537328 C82.0456972,22.0872457 71.5407983,22.3324082 42.8666952,30.7037854 C-17.2885546,48.2660535 -10.1076277,114.600876 45.3526446,110.612658 C100.812917,106.62444 105.8886,82.9976535 54.1942999,82.9976535 Z" id="Path-53" fill="#FF8C6A" fill-rule="nonzero"></path>
                            <path d="M79.3426907,364.104195 C78.6744369,364.104195 77.1285397,367.166277 75.4834396,367.166277 C74.3867063,367.166277 73.5876564,366.265338 73.0862899,364.463459 C65.9584728,364.795577 61.4039089,366.584397 59.4225983,369.829921 C56.4506323,374.698206 60.7511112,376.703912 64.1031175,375.735593 C67.4551239,374.767274 78.5067056,370.706723 80.3680738,370.077561 C82.2294419,369.4484 80.0109445,364.104195 79.3426907,364.104195 Z" id="Path-17" fill="#4D75FF" fill-rule="nonzero"></path>
                            <g id="Path-2" transform="translate(39.000000, 21.000000)">
                                <mask id="mask-4" fill="white">
                                    <use xlink:href="#path-3"></use>
                                </mask>
                                <use id="Mask" fill="#FFDB9A" fill-rule="nonzero" xlink:href="#path-3"></use>
                                <path d="M34.2082871,9.7421149 C30.68187,48.1644028 27.89377,92.5975404 37.0472081,92.5975404 C42.5974926,92.5975404 46.3767237,44.6902777 44,18.1510359 C42.45707,0.922195863 35.5964237,-5.38241022 34.2082871,9.7421149 Z" fill-opacity="0.1" fill="#000000" fill-rule="nonzero" mask="url(#mask-4)"></path>
                            </g>
                            <g id="Group-14" transform="translate(66.347587, 31.631381) rotate(8.000000) translate(-66.347587, -31.631381) translate(41.347587, 4.131381)" fill="#4D75FF" fill-rule="nonzero">
                                <path d="M40.629256,54.5828312 C46.8629547,55.7437458 53.6163966,19.8541298 47.6169156,17.5750585 C43.6172617,16.0556777 42.7068004,18.5060791 44.8855318,24.9262627 C37.0912392,7.6251181 30.3287294,-0.594763687 24.5980024,0.266617316 C18.8672755,1.12799832 17.6180833,5.29912478 20.8504258,12.7799967 C9.55862292,7.81575141 2.98101993,9.32923584 1.11761682,17.32045 C-1.67748785,29.3072712 35.2258956,28.0311224 38.9313633,33.0396641 C42.6368309,38.0482058 34.3955573,53.4219166 40.629256,54.5828312 Z" id="Path-39"></path>
                            </g>
                            <path d="M111.226558,202.542448 C107.186722,205.200606 97.3937522,209.908991 98.2512933,211.362712 C98.8229874,212.331859 101.195746,211.560363 105.369568,209.048226 C100.074978,212.377505 97.7022194,214.633802 98.2512933,215.817117 C98.8003672,217.000431 101.352752,215.51563 105.908446,211.362712 C102.447683,215.051126 101.041841,217.09526 101.69092,217.495112 C102.339999,217.894964 104.32067,216.486807 107.632934,213.270641 C105.369325,216.010167 104.794495,217.533185 105.908446,217.839696 C107.022397,218.146207 110.327793,213.303063 115.824636,203.310265 C115.452475,201.026282 113.919783,200.770343 111.226558,202.542448 Z" id="Path-50" fill="#FFDB9A" fill-rule="nonzero"></path>
                        </g>
                        <path d="M99.7180327,343.412489 C100.655113,342.10699 116.156966,338.884702 116.156966,340.393965 C116.156966,341.903227 116.928792,348.673052 116.156966,348.673052 C115.38514,348.673052 103.583568,351.757878 102.337758,350.823862 C101.091947,349.889846 98.7809527,344.717988 99.7180327,343.412489 Z" id="Path-46" fill="#FFC245" fill-rule="nonzero"></path>
                        <path d="M66.8806394,340.561383 C68.2582207,339.364485 83.4668016,340.303465 83.4668016,341.314394 C83.4668016,342.325323 83.7479529,348.895203 82.6738859,349.413899 C81.599819,349.932595 69.5738949,350.420873 68.9160578,349.413899 C68.2582207,348.406925 65.5030581,341.758281 66.8806394,340.561383 Z" id="Path-47" fill="#FFC245" fill-rule="nonzero"></path>
                        <path d="M109.552921,362.933025 C99.5176402,364.790968 94.5,367.886505 94.5,372.219637 C94.5,374.729021 96.8906854,375.76296 99.9753829,374.387024 C105.89021,371.748702 114.846137,367.953517 116.297937,366.980331 C117.19665,366.377896 115.666065,361.030756 114.986197,361.559135 C114.306329,362.087515 113.38024,364.828396 111.919276,364.334938 C110.9453,364.005966 110.156515,363.538662 109.552921,362.933025 Z" id="Path-52" fill="#4D75FF" fill-rule="nonzero"></path>
                    </g>
                    <path d="M175.413791,161 C171.36778,169.064427 170.918256,174.047445 174.065217,175.949055" id="Path-54-Copy" stroke="#4D75FF" stroke-width="2" fill-rule="nonzero"></path>
                    <g id="Group-20" transform="translate(81.744630, 112.533352) rotate(-7.000000) translate(-81.744630, -112.533352) translate(59.244630, 84.533352)" fill-rule="nonzero">
                        <path d="M7.97839494,50.3952701 C8.91338992,49.7650722 19.9093687,42.1435846 40.9663313,27.5308071 C31.5949481,9.84686342 26.1012697,1.0048916 24.4852959,1.0048916 C22.0613353,1.0048916 10.6104255,7.95132384 11.9669072,11.2841397 C13.323389,14.6169555 20.820801,25.0235665 19.5296211,25.7000809 C18.2384412,26.3765952 4.10962508,33.9235514 1.74219903,40.2043387 C-0.625227013,46.485126 6.57590247,51.3405669 7.97839494,50.3952701 Z" id="Path-56" fill="#FFC245" transform="translate(21.117332, 25.759090) rotate(-3.000000) translate(-21.117332, -25.759090) "></path>
                        <g id="Group-17" transform="translate(15.000000, 31.000000)" stroke="#4D75FF">
                            <path d="M0.427029026,21.9363128 C0.0522940951,23.2351313 0.0522940951,24.1077255 0.427029026,24.5540954 C0.801763958,25.0004653 2.25244688,24.714797 4.77907779,23.6970903" id="Path-57"></path>
                            <path d="M0.725804174,24.3294928 C5.37176269,19.6327523 14.9150917,11.9191108 29.3557912,1.18856817" id="Path-58"></path>
                            <path d="M24.8796886,1.91197194 C27.5105141,0.870844805 29.0522386,0.569236437 29.5048621,1.00714684 C29.9574856,1.44505724 29.6788574,2.50265344 28.6689775,4.17993541" id="Path-59"></path>
                        </g>
                    </g>
                    <path d="M292.442173,113.540406 C296.105313,111.655473 298.065748,107.726274 308.467478,100.511792 C313.008114,97.3624759 324.088166,98.9367671 323.883698,92.2583822 C323.555759,81.5471044 309.826624,65.7324668 307.402663,65.7324668 C304.978702,65.7324668 293.527793,72.678899 294.884274,76.0117148 C296.240756,79.3445307 303.738168,89.7511416 302.446988,90.427656 C301.155808,91.1041704 287.026992,98.6511265 284.659566,104.931914 C282.29214,111.212701 288.779033,115.425339 292.442173,113.540406 Z" id="Path-56" fill="#FFC245" fill-rule="nonzero" transform="translate(304.019448, 89.863019) rotate(-303.000000) translate(-304.019448, -89.863019) "></path>
                    <g id="Group-16" transform="translate(294.783846, 106.665941) rotate(-57.000000) translate(-294.783846, -106.665941) translate(288.783846, 103.665941)" fill-rule="nonzero" stroke="#4D75FF">
                        <path d="M7.66844983,0.679764171 C10.4223014,1.07276534 11.7992271,1.65342796 11.7992271,2.42175204 C11.7992271,3.19007612 10.4223014,4.21547662 7.66844983,5.49795353" id="Path-67"></path>
                        <path d="M11.6438316,2.3933803 C7.28929457,2.68624591 3.51869624,3.28044537 0.332036573,4.1759787" id="Path-68"></path>
                    </g>
                    <g id="Group-21" transform="translate(253.000000, 0.000000)" fill="#FF8E6D" fill-rule="nonzero">
                        <path d="M1.97391063,11.6650549 C3.7541787,11.6650549 3.49941915,3.26539839 7.71901004,4.76054287 C11.9386009,6.25568735 7.88034373,12.3708424 9.16799148,18.2018238 C9.86230014,21.3459296 14.4407794,21.3459296 12.7593716,17.1250006 C11.0779637,12.9040716 16.1518782,3.83324004 9.83686451,1.38090282 C5.37590052,-0.351443074 0.973642109,2.86631003 0.494055099,8.3540336 C0.321644934,10.3268546 0.68769766,11.6650549 1.97391063,11.6650549 Z" id="Path-60"></path>
                        <circle id="Oval" cx="15" cy="25" r="2"></circle>
                    </g>
                </g>
                <path d="" id="Path-64-Copy" stroke="#979797" fill-rule="nonzero"></path>
                <g id="Group-19-Copy" transform="translate(166.000000, 49.000000)" fill-rule="nonzero">
                    <path d="M29.2278701,29.9471537 C23.9275864,29.0020812 18.7168591,28.9646955 13.6024769,29.8359024 C13.6113605,27.9395878 13.6053465,26.2914058 13.4183373,25.1914806 C12.5818661,20.271637 2.67160693,-0.142817166 21.0217827,0.000753531082 C32.0589828,0.0871079372 32.48316,16.7109146 29.2278701,29.9471537 Z M28.638852,32.1660818 C26.4272231,39.9122498 23.0098683,46 19.9281174,46 C14.1036087,46 13.6106626,38.4651438 13.5951774,32.1663809 C18.5131498,31.2738883 23.5253143,31.2734692 28.638852,32.1660818 Z" id="Combined-Shape" fill="#FFC245"></path>
                    <g id="Group-16" transform="translate(0.000000, 23.000000)" stroke="#4D75FF">
                        <path d="M7.66844983,0.679764171 C10.4223014,1.07276534 11.7992271,1.65342796 11.7992271,2.42175204 C11.7992271,3.19007612 10.4223014,4.21547662 7.66844983,5.49795353" id="Path-67"></path>
                        <path d="M11.6438316,2.3933803 C7.28929457,2.68624591 3.51869624,3.28044537 0.332036573,4.1759787" id="Path-68"></path>
                    </g>
                    <g id="Group-13" transform="translate(31.000000, 22.000000)" stroke="#4D75FF">
                        <path d="M4.53177912,0.602448657 C1.82801129,1.46344264 0.476127371,2.26646845 0.476127371,3.0115261 C0.476127371,3.75658374 2.40873064,4.44901222 6.27393717,5.08881155" id="Path-69"></path>
                        <path d="M0.599238557,2.96276008 C3.38941645,2.96276008 7.85987354,2.30850672 14.0106098,1" id="Path-70"></path>
                    </g>
                </g>
                <polyline id="Path-71-Copy" stroke="#FF8E6D" stroke-width="2" fill-rule="nonzero" points="372 116.888005 373.971516 108.599141 381.3728 114.264355 384.313879 105.974486 392.310072 111.431245 394.058092 103"></polyline>
                <polygon id="Path-73-Copy" stroke="#FF8E6D" stroke-width="2" fill-rule="nonzero" points="53.4542431 220 43 241.56969 60.362796 238.787724"></polygon>
                <path d="" id="Path-74-Copy" stroke="#979797" fill-rule="nonzero"></path>
                <g id="Group-22" transform="translate(241.000000, 127.000000)" fill="#FF8E6D" fill-rule="nonzero">
                    <path d="M1.7293249,0.263075363 C7.99115535,-2.61683135 14.2078185,19.0683099 11.0994869,20.4414413 C7.99115535,21.8145727 -4.53250554,3.14298207 1.7293249,0.263075363 Z" id="Path-75-Copy"></path>
                    <circle id="Oval-Copy-2" cx="14.5" cy="26.5" r="2.5"></circle>
                </g>
                <path d="M353,204 L360,204 C360.552285,204 361,204.447715 361,205 L361,207 C361,207.552285 360.552285,208 360,208 L353,208 L353,215 C353,215.552285 352.552285,216 352,216 L350,216 C349.447715,216 349,215.552285 349,215 L349,208 L342,208 C341.447715,208 341,207.552285 341,207 L341,205 C341,204.447715 341.447715,204 342,204 L349,204 L349,197 C349,196.447715 349.447715,196 350,196 L352,196 C352.552285,196 353,196.447715 353,197 L353,204 Z" id="Combined-Shape" fill="#FF8E6D" fill-rule="nonzero"></path>
                <path d="M96.1421356,12.1421356 L103.142136,12.1421356 C103.69442,12.1421356 104.142136,12.5898509 104.142136,13.1421356 L104.142136,15.1421356 C104.142136,15.6944204 103.69442,16.1421356 103.142136,16.1421356 L96.1421356,16.1421356 L96.1421356,23.1421356 C96.1421356,23.6944204 95.6944204,24.1421356 95.1421356,24.1421356 L93.1421356,24.1421356 C92.5898509,24.1421356 92.1421356,23.6944204 92.1421356,23.1421356 L92.1421356,16.1421356 L85.1421356,16.1421356 C84.5898509,16.1421356 84.1421356,15.6944204 84.1421356,15.1421356 L84.1421356,13.1421356 C84.1421356,12.5898509 84.5898509,12.1421356 85.1421356,12.1421356 L92.1421356,12.1421356 L92.1421356,5.14213562 C92.1421356,4.58985087 92.5898509,4.14213562 93.1421356,4.14213562 L95.1421356,4.14213562 C95.6944204,4.14213562 96.1421356,4.58985087 96.1421356,5.14213562 L96.1421356,12.1421356 Z" id="Combined-Shape-Copy" fill="#FF8E6D" fill-rule="nonzero" transform="translate(94.142136, 14.142136) rotate(-315.000000) translate(-94.142136, -14.142136) "></path>
            </g>
        </g>
    </g>
</svg>